{
	"asset":{
		"version":"2.0",
		"generator":"Created using the official Cinema 4D glTF Exporter 1.000x284978"
	},
	"scenes":[{
		"nodes":[0,
		1,
		2,
		3,
		4,
		5]
	}],
	"nodes":[{
		"scale":[1.0,
		1.0,
		1.0],
		"name":"Top",
		"mesh":0,
		"translation":[88.95975494384766,
		407.4057312011719,
		-296.8433532714844],
		"rotation":[0.2540414035320282,
		0.3102957606315613,
		0.9085233807563782,
		-0.11732311546802521]
	},
	{
		"scale":[1.0,
		1.0,
		1.0],
		"name":"Top.1",
		"mesh":1,
		"translation":[88.95975494384766,
		407.4057312011719,
		-296.8433532714844],
		"rotation":[0.2540414035320282,
		0.3102957606315613,
		0.9085233807563782,
		-0.11732311546802521]
	},
	{
		"scale":[1.0,
		1.0,
		1.0],
		"name":"Middle",
		"mesh":2,
		"translation":[377.31207275390627,
		407.4057312011719,
		-112.78868865966797],
		"rotation":[0.20064601302146913,
		0.17014096677303315,
		-0.4470866024494171,
		-0.8549308776855469]
	},
	{
		"scale":[1.0,
		1.0,
		1.0],
		"name":"Middle.1",
		"mesh":3,
		"translation":[377.31207275390627,
		407.4057312011719,
		-112.78868865966797],
		"rotation":[0.20064601302146913,
		0.17014096677303315,
		-0.4470866024494171,
		-0.8549308776855469]
	},
	{
		"scale":[1.0,
		1.0,
		1.0],
		"name":"Bottom",
		"mesh":4,
		"translation":[723.9483642578125,
		407.4057312011719,
		479.2538146972656],
		"rotation":[0.28286948800086977,
		0.4969024956226349,
		0.8154852390289307,
		-0.08975831419229508]
	},
	{
		"scale":[1.0,
		1.0,
		1.0],
		"name":"Bottom.1",
		"mesh":5,
		"translation":[723.9483642578125,
		407.4057312011719,
		479.2538146972656],
		"rotation":[0.28286948800086977,
		0.4969024956226349,
		0.8154852390289307,
		-0.08975831419229508]
	}],
	"meshes":[{
		"name":"Top",
		"primitives":[{
			"attributes":{
				"POSITION":1,
				"NORMAL":2,
				"TEXCOORD_0":3
			},
			"indices":0,
			"material":0
		}]
	},
	{
		"name":"Top.1",
		"primitives":[{
			"attributes":{
				"POSITION":5,
				"NORMAL":6,
				"TEXCOORD_0":7
			},
			"indices":4,
			"material":1
		}]
	},
	{
		"name":"Middle",
		"primitives":[{
			"attributes":{
				"POSITION":9,
				"NORMAL":10,
				"TEXCOORD_0":11
			},
			"indices":8,
			"material":2
		}]
	},
	{
		"name":"Middle.1",
		"primitives":[{
			"attributes":{
				"POSITION":13,
				"NORMAL":14,
				"TEXCOORD_0":15
			},
			"indices":12,
			"material":3
		}]
	},
	{
		"name":"Bottom",
		"primitives":[{
			"attributes":{
				"POSITION":17,
				"NORMAL":18,
				"TEXCOORD_0":19
			},
			"indices":16,
			"material":4
		}]
	},
	{
		"name":"Bottom.1",
		"primitives":[{
			"attributes":{
				"POSITION":21,
				"NORMAL":22,
				"TEXCOORD_0":23
			},
			"indices":20,
			"material":5
		}]
	}],
	"accessors":[{
		"bufferView":0,
		"type":"SCALAR",
		"componentType":5123,
		"count":1890,
		"byteOffset":0,
		"min":[0],
		"max":[367]
	},
	{
		"bufferView":1,
		"type":"VEC3",
		"componentType":5126,
		"count":368,
		"byteOffset":0,
		"min":[-260.4001159667969,
		-35.0,
		-260.8769836425781],
		"max":[261.0360107421875,
		35.0,
		260.8769836425781]
	},
	{
		"bufferView":1,
		"type":"VEC3",
		"componentType":5126,
		"count":368,
		"byteOffset":12,
		"min":[-0.9890570640563965,
		-0.9659181237220764,
		-0.9908543825149536],
		"max":[0.9914441108703613,
		0.9659181237220764,
		0.9908543825149536]
	},
	{
		"bufferView":1,
		"type":"VEC2",
		"componentType":5126,
		"count":368,
		"byteOffset":24,
		"min":[0.0,
		0.4273183345794678],
		"max":[1.0,
		0.5726815462112427]
	},
	{
		"bufferView":2,
		"type":"SCALAR",
		"componentType":5123,
		"count":270,
		"byteOffset":0,
		"min":[0],
		"max":[181]
	},
	{
		"bufferView":3,
		"type":"VEC3",
		"componentType":5126,
		"count":182,
		"byteOffset":0,
		"min":[-247.43179321289063,
		-35.0,
		-247.88490295410157],
		"max":[248.03599548339845,
		35.0,
		247.88490295410157]
	},
	{
		"bufferView":3,
		"type":"VEC3",
		"componentType":5126,
		"count":182,
		"byteOffset":12,
		"min":[0.0,
		-1.0,
		0.0],
		"max":[0.0,
		1.0,
		0.0]
	},
	{
		"bufferView":3,
		"type":"VEC2",
		"componentType":5126,
		"count":182,
		"byteOffset":24,
		"min":[0.0,
		0.0],
		"max":[1.0,
		1.0]
	},
	{
		"bufferView":4,
		"type":"SCALAR",
		"componentType":5123,
		"count":2523,
		"byteOffset":0,
		"min":[0],
		"max":[488]
	},
	{
		"bufferView":5,
		"type":"VEC3",
		"componentType":5126,
		"count":489,
		"byteOffset":0,
		"min":[-455.6556396484375,
		-35.0,
		-455.6556396484375],
		"max":[455.6556396484375,
		35.0,
		455.6556396484375]
	},
	{
		"bufferView":5,
		"type":"VEC3",
		"componentType":5126,
		"count":489,
		"byteOffset":12,
		"min":[-0.9914441108703613,
		-1.0,
		-0.9914441108703613],
		"max":[0.9914441108703613,
		0.9659242033958435,
		0.9914441108703613]
	},
	{
		"bufferView":5,
		"type":"VEC2",
		"componentType":5126,
		"count":489,
		"byteOffset":24,
		"min":[0.0,
		0.4564932584762573],
		"max":[1.0,
		1.0]
	},
	{
		"bufferView":6,
		"type":"SCALAR",
		"componentType":5123,
		"count":357,
		"byteOffset":0,
		"min":[0],
		"max":[240]
	},
	{
		"bufferView":7,
		"type":"VEC3",
		"componentType":5126,
		"count":241,
		"byteOffset":0,
		"min":[-442.6556396484375,
		-35.0,
		-442.6556396484375],
		"max":[442.6556396484375,
		35.0,
		442.6556396484375]
	},
	{
		"bufferView":7,
		"type":"VEC3",
		"componentType":5126,
		"count":241,
		"byteOffset":12,
		"min":[0.0,
		-1.0,
		0.0],
		"max":[0.0,
		1.0,
		0.0]
	},
	{
		"bufferView":7,
		"type":"VEC2",
		"componentType":5126,
		"count":241,
		"byteOffset":24,
		"min":[0.0,
		0.0],
		"max":[1.0,
		1.0]
	},
	{
		"bufferView":8,
		"type":"SCALAR",
		"componentType":5123,
		"count":2520,
		"byteOffset":0,
		"min":[0],
		"max":[487]
	},
	{
		"bufferView":9,
		"type":"VEC3",
		"componentType":5126,
		"count":488,
		"byteOffset":0,
		"min":[-415.0472412109375,
		-35.0,
		-415.0472412109375],
		"max":[415.0472412109375,
		35.0,
		415.0472412109375]
	},
	{
		"bufferView":9,
		"type":"VEC3",
		"componentType":5126,
		"count":488,
		"byteOffset":12,
		"min":[-0.9914441108703613,
		-0.9659242033958435,
		-0.9914441108703613],
		"max":[0.9914441108703613,
		0.9659242033958435,
		0.9914441108703613]
	},
	{
		"bufferView":9,
		"type":"VEC2",
		"componentType":5126,
		"count":488,
		"byteOffset":24,
		"min":[0.0,
		0.45251625776290896],
		"max":[1.0,
		0.5474836826324463]
	},
	{
		"bufferView":10,
		"type":"SCALAR",
		"componentType":5123,
		"count":360,
		"byteOffset":0,
		"min":[0],
		"max":[241]
	},
	{
		"bufferView":11,
		"type":"VEC3",
		"componentType":5126,
		"count":242,
		"byteOffset":0,
		"min":[-402.0472412109375,
		-35.0,
		-402.0472412109375],
		"max":[402.0472412109375,
		35.0,
		402.0472412109375]
	},
	{
		"bufferView":11,
		"type":"VEC3",
		"componentType":5126,
		"count":242,
		"byteOffset":12,
		"min":[0.0,
		-1.0,
		0.0],
		"max":[0.0,
		1.0,
		0.0]
	},
	{
		"bufferView":11,
		"type":"VEC2",
		"componentType":5126,
		"count":242,
		"byteOffset":24,
		"min":[0.0,
		0.0],
		"max":[1.0,
		1.0]
	}],
	"bufferViews":[{
		"buffer":0,
		"byteOffset":0,
		"byteLength":3780,
		"target":34963
	},
	{
		"buffer":0,
		"byteOffset":3780,
		"byteLength":11776,
		"target":34962,
		"byteStride":32
	},
	{
		"buffer":1,
		"byteOffset":0,
		"byteLength":540,
		"target":34963
	},
	{
		"buffer":1,
		"byteOffset":540,
		"byteLength":5824,
		"target":34962,
		"byteStride":32
	},
	{
		"buffer":2,
		"byteOffset":0,
		"byteLength":5046,
		"target":34963
	},
	{
		"buffer":2,
		"byteOffset":5048,
		"byteLength":15648,
		"target":34962,
		"byteStride":32
	},
	{
		"buffer":3,
		"byteOffset":0,
		"byteLength":714,
		"target":34963
	},
	{
		"buffer":3,
		"byteOffset":716,
		"byteLength":7712,
		"target":34962,
		"byteStride":32
	},
	{
		"buffer":4,
		"byteOffset":0,
		"byteLength":5040,
		"target":34963
	},
	{
		"buffer":4,
		"byteOffset":5040,
		"byteLength":15616,
		"target":34962,
		"byteStride":32
	},
	{
		"buffer":5,
		"byteOffset":0,
		"byteLength":720,
		"target":34963
	},
	{
		"buffer":5,
		"byteOffset":720,
		"byteLength":7744,
		"target":34962,
		"byteStride":32
	}],
	"buffers":[{
		"uri":"data:application/octet-stream;base64,",
		"byteLength":15556
	},
	{
		"uri":"data:application/octet-stream;base64,",
		"byteLength":6364
	},
	{
		"uri":"data:application/octet-stream;base64,",
		"byteLength":20696
	},
	{
		"uri":"data:application/octet-stream;base64,",
		"byteLength":8428
	},
	{
		"uri":"data:application/octet-stream;base64,",
		"byteLength":20656
	},
	{
		"uri":"data:application/octet-stream;base64,",
		"byteLength":8464
	}],
	"materials":[{
		"alphaMode":"OPAQUE",
		"pbrMetallicRoughness":{
			"baseColorFactor":[1.0,
			1.0,
			1.0,
			1.0],
			"metallicFactor":1.0,
			"roughnessFactor":1.0
		},
		"emissiveFactor":[0.0,
		0.0,
		0.0],
		"doubleSided":false,
		"name":""
	},
	{
		"alphaMode":"OPAQUE",
		"pbrMetallicRoughness":{
			"baseColorFactor":[1.0,
			1.0,
			1.0,
			1.0],
			"metallicFactor":1.0,
			"roughnessFactor":1.0
		},
		"emissiveFactor":[0.0,
		0.0,
		0.0],
		"doubleSided":false,
		"name":""
	},
	{
		"alphaMode":"OPAQUE",
		"pbrMetallicRoughness":{
			"baseColorFactor":[1.0,
			1.0,
			1.0,
			1.0],
			"metallicFactor":1.0,
			"roughnessFactor":1.0
		},
		"emissiveFactor":[0.0,
		0.0,
		0.0],
		"doubleSided":false,
		"name":""
	},
	{
		"alphaMode":"OPAQUE",
		"pbrMetallicRoughness":{
			"baseColorFactor":[1.0,
			1.0,
			1.0,
			1.0],
			"metallicFactor":1.0,
			"roughnessFactor":1.0
		},
		"emissiveFactor":[0.0,
		0.0,
		0.0],
		"doubleSided":false,
		"name":""
	},
	{
		"alphaMode":"OPAQUE",
		"pbrMetallicRoughness":{
			"baseColorFactor":[1.0,
			1.0,
			1.0,
			1.0],
			"metallicFactor":1.0,
			"roughnessFactor":1.0
		},
		"emissiveFactor":[0.0,
		0.0,
		0.0],
		"doubleSided":false,
		"name":""
	},
	{
		"alphaMode":"OPAQUE",
		"pbrMetallicRoughness":{
			"baseColorFactor":[1.0,
			1.0,
			1.0,
			1.0],
			"metallicFactor":1.0,
			"roughnessFactor":1.0
		},
		"emissiveFactor":[0.0,
		0.0,
		0.0],
		"doubleSided":false,
		"name":""
	}]
}