{
	"asset":{
		"version":"2.0",
		"generator":"Created using the official Cinema 4D glTF Exporter 1.000x284978"
	},
	"scenes":[{
		"nodes":[0,
		1,
		2]
	}],
	"nodes":[{
		"name":"Top",
		"mesh":0,
		"translation":[88.95975494384766,
		407.4057312011719,
		-296.8433532714844],
		"rotation":[0.2540414035320282,
		0.3102957606315613,
		0.9085233807563782,
		-0.11732311546802521],
		"scale":[1.0,
		1.0,
		1.0]
	},
	{
		"name":"Middle",
		"mesh":1,
		"translation":[377.31207275390627,
		407.4057312011719,
		-112.78868865966797],
		"rotation":[0.20064601302146913,
		0.17014096677303315,
		-0.4470866024494171,
		-0.8549308776855469],
		"scale":[1.0,
		1.0,
		1.0]
	},
	{
		"name":"Bottom",
		"mesh":2,
		"translation":[723.9483642578125,
		407.4057312011719,
		479.2538146972656],
		"rotation":[0.28286948800086977,
		0.4969024956226349,
		0.8154852390289307,
		-0.08975831419229508],
		"scale":[1.0,
		1.0,
		1.0]
	}],
	"meshes":[{
		"name":"Top",
		"primitives":[{
			"attributes":{
				"POSITION":1,
				"NORMAL":2,
				"TEXCOORD_0":3
			},
			"indices":0,
			"material":0
		}]
	},
	{
		"name":"Middle",
		"primitives":[{
			"attributes":{
				"POSITION":5,
				"NORMAL":6,
				"TEXCOORD_0":7
			},
			"indices":4,
			"material":1
		}]
	},
	{
		"name":"Bottom",
		"primitives":[{
			"attributes":{
				"POSITION":9,
				"NORMAL":10,
				"TEXCOORD_0":11
			},
			"indices":8,
			"material":2
		}]
	}],
	"accessors":[{
		"bufferView":0,
		"min":[0],
		"type":"SCALAR",
		"componentType":5123,
		"count":2160,
		"byteOffset":0,
		"max":[457]
	},
	{
		"bufferView":1,
		"min":[-260.4001159667969,
		-35.0,
		-260.8769836425781],
		"type":"VEC3",
		"componentType":5126,
		"count":458,
		"byteOffset":0,
		"max":[261.0360107421875,
		35.0,
		260.8769836425781]
	},
	{
		"bufferView":1,
		"min":[-0.9890570640563965,
		-1.0,
		-0.9908543825149536],
		"type":"VEC3",
		"componentType":5126,
		"count":458,
		"byteOffset":12,
		"max":[0.9914441108703613,
		1.0,
		0.9908543825149536]
	},
	{
		"bufferView":1,
		"min":[0.0,
		0.0],
		"type":"VEC2",
		"componentType":5126,
		"count":458,
		"byteOffset":24,
		"max":[1.0,
		1.0]
	},
	{
		"bufferView":2,
		"min":[0],
		"type":"SCALAR",
		"componentType":5123,
		"count":2880,
		"byteOffset":0,
		"max":[607]
	},
	{
		"bufferView":3,
		"min":[-455.6556396484375,
		-35.0,
		-455.6556396484375],
		"type":"VEC3",
		"componentType":5126,
		"count":608,
		"byteOffset":0,
		"max":[455.6556396484375,
		35.0,
		455.6556396484375]
	},
	{
		"bufferView":3,
		"min":[-0.9914441108703613,
		-1.0,
		-0.9914441108703613],
		"type":"VEC3",
		"componentType":5126,
		"count":608,
		"byteOffset":12,
		"max":[0.9914441108703613,
		1.0,
		0.9914441108703613]
	},
	{
		"bufferView":3,
		"min":[0.0,
		0.0],
		"type":"VEC2",
		"componentType":5126,
		"count":608,
		"byteOffset":24,
		"max":[1.0,
		1.0]
	},
	{
		"bufferView":4,
		"min":[0],
		"type":"SCALAR",
		"componentType":5123,
		"count":2880,
		"byteOffset":0,
		"max":[607]
	},
	{
		"bufferView":5,
		"min":[-415.0472412109375,
		-35.0,
		-415.0472412109375],
		"type":"VEC3",
		"componentType":5126,
		"count":608,
		"byteOffset":0,
		"max":[415.0472412109375,
		35.0,
		415.0472412109375]
	},
	{
		"bufferView":5,
		"min":[-0.9914441108703613,
		-1.0,
		-0.9914441108703613],
		"type":"VEC3",
		"componentType":5126,
		"count":608,
		"byteOffset":12,
		"max":[0.9914441108703613,
		1.0,
		0.9914441108703613]
	},
	{
		"bufferView":5,
		"min":[0.0,
		0.0],
		"type":"VEC2",
		"componentType":5126,
		"count":608,
		"byteOffset":24,
		"max":[1.0,
		1.0]
	}],
	"bufferViews":[{
		"buffer":0,
		"byteOffset":0,
		"byteLength":4320,
		"target":34963
	},
	{
		"buffer":0,
		"byteOffset":4320,
		"byteLength":14656,
		"target":34962,
		"byteStride":32
	},
	{
		"buffer":1,
		"byteOffset":0,
		"byteLength":5760,
		"target":34963
	},
	{
		"buffer":1,
		"byteOffset":5760,
		"byteLength":19456,
		"target":34962,
		"byteStride":32
	},
	{
		"buffer":2,
		"byteOffset":0,
		"byteLength":5760,
		"target":34963
	},
	{
		"buffer":2,
		"byteOffset":5760,
		"byteLength":19456,
		"target":34962,
		"byteStride":32
	}],
	"buffers":[{
		"uri":"data:application/octet-stream;base64,",
		"byteLength":18976
	},
	{
		"uri":"data:application/octet-stream;base64,",
		"byteLength":25216
	},
	{
		"uri":"data:application/octet-stream;base64,",
		"byteLength":25216
	}],
	"materials":[{
		"pbrMetallicRoughness":{
			"baseColorFactor":[1.0,
			1.0,
			1.0,
			1.0],
			"metallicFactor":1.0,
			"roughnessFactor":1.0
		},
		"emissiveFactor":[0.0,
		0.0,
		0.0],
		"alphaMode":"OPAQUE",
		"doubleSided":false,
		"name":""
	},
	{
		"pbrMetallicRoughness":{
			"baseColorFactor":[1.0,
			1.0,
			1.0,
			1.0],
			"metallicFactor":1.0,
			"roughnessFactor":1.0
		},
		"emissiveFactor":[0.0,
		0.0,
		0.0],
		"alphaMode":"OPAQUE",
		"doubleSided":false,
		"name":""
	},
	{
		"pbrMetallicRoughness":{
			"baseColorFactor":[1.0,
			1.0,
			1.0,
			1.0],
			"metallicFactor":1.0,
			"roughnessFactor":1.0
		},
		"emissiveFactor":[0.0,
		0.0,
		0.0],
		"alphaMode":"OPAQUE",
		"doubleSided":false,
		"name":""
	}]
}