<svg width="164" height="245" viewBox="0 0 164 245" fill="none" xmlns="http://www.w3.org/2000/svg">
  <path d="M0.881277 84.5307H17.1132C23.3296 84.5307 24.0204 74.1699 18.4946 73.4792C14.0049 72.4431 10.8967 69.6803 10.206 63.1184C13.3142 47.2319 21.9482 33.7629 34.7265 23.7475C64.082 5.09807 161.128 15.8042 151.803 85.5668C148.695 92.8193 143.86 97.309 139.025 100.072C134.881 102.489 130.736 104.216 127.628 104.907C126.247 105.252 124.865 105.598 124.175 105.598C123.484 105.598 123.138 105.598 123.138 105.598C122.793 105.598 122.793 105.943 122.793 105.943L117.958 106.288L118.994 110.778C118.994 111.123 118.994 111.123 119.34 111.469C119.34 111.814 119.34 112.159 119.34 112.85C119.685 114.232 120.03 116.304 120.03 118.721C120.03 123.211 119.685 128.737 117.613 133.226C115.195 137.371 111.742 141.17 104.489 142.206C96.8912 143.242 85.4943 141.515 68.2263 134.262C49.5769 126.319 35.4172 127.01 25.0564 133.572C14.6956 140.134 8.82454 151.53 5.37095 163.273C2.26272 175.015 0.881277 187.448 0.881277 197.118C0.535917 201.608 0.881277 205.752 0.881277 208.86C0.881277 210.242 0.881277 211.278 0.881277 211.968C0.881277 212.659 1.22664 212.659 1.22664 213.004V244.087H163.2V199.881C161.128 197.463 155.257 192.628 148.35 200.571C137.989 237.525 111.051 235.798 111.051 235.798H31.2729C18.1492 231.999 7.09774 198.154 12.6235 168.108C12.9689 167.417 13.3142 166.381 13.3142 165.345C16.7678 154.639 21.6028 145.314 29.5461 140.479C36.7986 135.989 48.1955 134.608 64.7728 141.86C66.1542 142.206 67.1903 142.896 68.5717 143.242H67.1903C79.6232 149.113 93.7829 153.603 98.618 154.984C103.798 157.056 118.303 158.783 127.283 150.494C135.917 142.206 132.118 128.737 128.664 117.34C128.664 116.304 128.319 115.613 127.974 114.922C127.974 114.232 127.974 113.886 127.974 113.196C128.319 113.196 129.01 112.85 129.7 112.85C133.499 111.814 138.334 110.087 143.169 106.979C153.53 101.108 163.2 89.3658 163.2 68.6442C163.891 46.1958 155.602 28.9279 141.097 17.531C125.901 5.7888 104.834 0.608398 82.0407 0.608398C35.0718 0.608398 0.881277 33.7629 0.881277 75.8968V84.5307Z" fill="#EFEFEF"/>
</svg>
