<svg width="182" height="223" viewBox="0 0 182 223" fill="none" xmlns="http://www.w3.org/2000/svg">
<path fill-rule="evenodd" clip-rule="evenodd" d="M172.549 97.8314L172.538 97.849C166.057 108.16 166.052 120.502 172.247 130.826C178.063 140.52 181.299 151.521 181.299 163.48C181.299 167.034 180.976 170.565 180.663 173.699L180.653 173.797L179.686 178.633L179.675 178.677C173.169 205.025 148.495 222.469 121.371 222.469H64.382C28.8336 222.469 0.383118 194.019 0.383118 158.47V64.2196C0.383118 29.9658 27.2059 1.83961 61.1556 0.222967L61.2031 0.220703H117.926C142.174 0.220703 163.507 14.1137 173.864 34.1612C175.805 37.7225 177.411 41.585 178.691 45.4258L178.696 45.4409L178.701 45.456C180.645 51.6105 181.612 58.0769 181.612 64.8458C181.612 76.7949 178.382 88.1099 172.56 97.8136L172.549 97.8314ZM172.097 35.0989C162.077 15.6851 141.411 2.2207 117.926 2.2207H61.2507C28.3725 3.78633 2.38312 31.0283 2.38312 64.2196V158.47C2.38312 192.914 29.9382 220.469 64.382 220.469H121.371C147.673 220.469 171.471 203.56 177.733 178.197L178.673 173.5C178.986 170.369 179.299 166.925 179.299 163.48C179.299 151.895 176.168 141.248 170.532 131.855C163.956 120.895 163.956 107.744 170.845 96.7846C176.481 87.3908 179.612 76.4315 179.612 64.8458C179.612 58.2702 178.673 52.0077 176.794 46.0583C175.542 42.3008 173.976 38.5433 172.097 35.0989Z" fill="white"/>
<path fill-rule="evenodd" clip-rule="evenodd" d="M114.5 92C129.688 92 142 79.6875 142 64.5C142 49.3125 129.688 37 114.5 37C99.3122 37 87 49.3125 87 64.5C87 79.6875 99.3122 92 114.5 92ZM114.5 90C128.583 90 140 78.583 140 64.5C140 50.417 128.583 39 114.5 39C100.417 39 89 50.417 89 64.5C89 78.583 100.417 90 114.5 90Z" fill="#D9D9D9"/>
<path fill-rule="evenodd" clip-rule="evenodd" d="M142 155.5C142 170.688 129.688 183 114.5 183C99.3122 183 87 170.688 87 155.5C87 140.312 99.3122 128 114.5 128C129.688 128 142 140.312 142 155.5ZM140 155.5C140 169.583 128.583 181 114.5 181C100.417 181 89 169.583 89 155.5C89 141.417 100.417 130 114.5 130C128.583 130 140 141.417 140 155.5Z" fill="#D9D9D9"/>
</svg>
