<svg width="1600" height="1200" fill="none" xmlns="http://www.w3.org/2000/svg"><path d="M334.9 581v-52.6h-32.7V665H334v-24.6c3.2 17.8 14.3 26.6 33.3 26.6 32 0 39-7.6 39-45.7v-14.9c0-38.2-7-45.7-37.3-45.7-20.5 0-30.4 4.4-34.1 20.3Zm.1 48v-26.5c.9-9.2 6.9-13.6 18.5-13.6 15.7 0 18.6 3.4 18.6 18.6v13.1c0 14.9-3 18.3-18.6 18.3-11.5 0-17.5-3.4-18.5-10Zm82.3 6.5c0 27.6 6.2 32.6 39.6 31.5 16-.1 27.5-6.4 32-20.1V665h32.4v-69c0-29.8-7.2-35.3-45.3-35.3h-7.8c-40 0-47.5 5.3-47.5 33.5v4h32.5c-.4-11.7 2.5-13.8 18.6-13.8 14.3 0 17 2 17 13.8v5.9l-32.4.1c-33 0-39 5-39 31.3Zm34.2.3c0-6.3 1.7-7.5 10.5-7.5l26.8-.2v4.5c0 8-5.4 11-19.8 11.4h-1.7c-13.3 0-15.8-1.4-15.8-8.2Zm80.7-2.7c0 28.5 7.2 34 44.7 34h7.9c43 0 50.9-4.8 50.9-29.4 0-15.7-4-25.1-20.2-29.9-8.9-2.6-16.7-4.6-33.4-7.3-11.1-1.7-14.2-3.8-14.2-8 0-6.4 3.4-8 16-8 13.2 0 16.8 2.3 16.8 10.7v3H633v-3c0-29.2-7.2-34.5-45.2-34.5H580c-38.7 0-46.3 4.6-46.3 30.7 0 13.7 3.6 21.4 17.6 26.8 10.3 4 25.8 6.3 31.8 7.5 15 2.8 18.6 5.5 18.6 9.6 0 6.1-4 7.8-18.6 7.8-15.9 0-20.2-2.2-20.2-10v-2.2h-30.7v2.2ZM645.6 614c0 44.7 7.8 53 49.6 53h7.9c41.5 0 49.2-5.4 49.2-34.4H718c0 8.7-2.9 10.5-18.8 10.5-16.5 0-19.6-2.9-19.6-17.7v-.5h73.4v-16c0-40.7-7.8-48.2-50-48.2h-7.9c-41.8 0-49.6 8.2-49.6 53.3Zm34.1-13.2v-.5c0-13.3 3-15.9 19.6-15.9 16 0 19.5 2.6 19.7 16.4h-39.3Zm87.8 64.2h32.4v-59.2c0-12 5.6-18 16.9-18 13 0 15.5 2.6 15.5 16V665h32.3l-.2-60.3c.4-11.2 6-16.9 17-16.9 12.9 0 15.1 2.6 15.1 16V665H929l-.2-66.2c0-32.1-5.8-38.1-37-38.1-17.3 0-27.7 7.3-31.5 23.5-1.3-19.4-7-23.5-33-23.5-15.1 0-23.8 6.1-27.4 21.5v-19.5h-32.4V665Zm174-51c0 44.7 8 53 50 53h7.8c41.1 0 48.8-5.4 48.8-34.4h-34c0 8.7-2.9 10.5-18.6 10.5-16.9 0-20-2.9-20-17.7v-.5h73.5v-16c0-40.7-7.9-48.2-49.7-48.2h-7.9c-42 0-49.8 8.2-49.8 53.3Zm34-13.2v-.5c0-13.3 3.1-15.9 20-15.9 16 0 19.3 2.6 19.5 16.4h-39.4Zm87.6 64.2h32.5v-61c.2-10.9 6.1-16.2 17.9-16.2 15 0 17.8 3 17.8 18.6V665h32.4l-.2-66.2c0-32.1-5.6-38.1-35.3-38.1-18.8 0-28.7 6.1-32.6 22.7v-20.7H1063V665Zm109-75.1h10v40.8c0 28.8 6.7 34.3 41 34.3h22.2v-29h-18.8c-10 0-12-1.7-12-10.3V590h29.3v-27.2h-29.2v-22h-30.8v22h-11.7V590Zm85.5 75.1h29.2v-29h-29.2v29Z" fill="#fff"/></svg>