<svg width="800" height="1000" fill="none" xmlns="http://www.w3.org/2000/svg"><path d="M183 496.6V472h-15.2v64h14.9v-11.5c1.5 8.3 6.7 12.5 15.6 12.5 15 0 18.3-3.6 18.3-21.5v-7c0-17.9-3.3-21.4-17.5-21.4-9.6 0-14.3 2.1-16 9.5Zm.2 22.5v-12.4c.4-4.3 3.2-6.4 8.6-6.4 7.4 0 8.7 1.6 8.7 8.7v6.2c0 7-1.3 8.6-8.7 8.6-5.4 0-8.2-1.6-8.6-4.7Zm38.5 3c0 13 2.9 15.3 18.6 14.9 7.5-.1 12.9-3 15-9.5v8.5h15.1v-32.3c0-14-3.3-16.6-21.2-16.6h-3.6c-18.8 0-22.3 2.5-22.3 15.7v2h15.2c-.1-5.6 1.2-6.6 8.7-6.6 6.8 0 8 1 8 6.5v2.7l-15.2.1c-15.4 0-18.3 2.3-18.3 14.7Zm16 .2c0-3 .8-3.5 5-3.5h12.5v2c0 3.8-2.5 5.2-9.2 5.4h-.8c-6.3 0-7.5-.7-7.5-3.9Zm37.9-1.3c0 13.4 3.3 16 21 16h3.6c20.2 0 23.8-2.3 23.8-13.8 0-7.4-1.8-11.8-9.4-14-4.2-1.2-7.8-2.2-15.7-3.4-5.2-.8-6.6-1.8-6.6-3.8 0-3 1.6-3.8 7.5-3.8 6.2 0 7.8 1.2 7.8 5v1.5h15.2v-1.4c0-13.7-3.3-16.2-21.2-16.2H298c-18.2 0-21.7 2.2-21.7 14.4 0 6.4 1.7 10 8.2 12.6 4.8 1.8 12.1 3 14.9 3.5 7 1.3 8.7 2.6 8.7 4.5 0 2.9-1.8 3.7-8.7 3.7-7.4 0-9.4-1-9.4-4.8v-1h-14.4v1Zm53-9c0 21 3.8 25 23.4 25h3.6c19.5 0 23-2.6 23-16.2h-16c0 4-1.3 5-8.7 5-7.8 0-9.2-1.4-9.2-8.4v-.2H379v-7.5c0-19-3.7-22.6-23.5-22.6H352c-19.6 0-23.3 3.9-23.3 25Zm16-6v-.3c0-6.3 1.5-7.5 9.3-7.5 7.5 0 9.1 1.2 9.2 7.7h-18.4Zm41.2 30H401v-27.8c0-5.6 2.6-8.4 8-8.4 6 0 7.2 1.2 7.2 7.5V536h15.1v-28.2c.1-5.3 2.7-8 7.9-8 6 0 7 1.2 7 7.5V536h15.3l-.1-31c0-15-2.7-17.9-17.4-17.9-8 0-13 3.5-14.7 11-.6-9-3.3-11-15.4-11-7.1 0-11.2 2.9-12.9 10.1v-9.1h-15.2V536Zm81.6-24c0 21 3.7 25 23.4 25h3.6c19.3 0 23-2.6 23-16.2h-16c0 4-1.4 5-8.7 5-8 0-9.4-1.4-9.4-8.4v-.2h34.4v-7.5c0-19-3.7-22.6-23.3-22.6h-3.6c-19.7 0-23.4 3.9-23.4 25Zm16-6v-.3c0-6.3 1.4-7.5 9.3-7.5 7.4 0 9 1.2 9.1 7.7h-18.5Zm41 30h15.2v-28.6c0-5 2.8-7.6 8.4-7.6 7 0 8.3 1.4 8.3 8.8V536h15.2l-.1-31c0-15-2.6-17.9-16.6-17.9-8.8 0-13.4 2.9-15.2 10.7V488h-15.2V536Zm51-35.2h4.7v19.1c0 13.5 3.1 16.1 19.2 16.1h10.4v-13.6H601c-4.7 0-5.6-.8-5.6-4.8v-16.8H609v-12.7h-13.7v-10.3H581V488h-5.5v12.7Zm40 35.2h13.8v-13.6h-13.7V536Z" fill="#fff"/></svg>