<svg width="186" height="186" viewBox="0 0 186 186" fill="none" xmlns="http://www.w3.org/2000/svg">
<path d="M83.4534 9.3244V18.6488H102.102V0H83.4534V9.3244ZM74.129 27.7401H92.7778V18.6488H74.129V27.7401ZM64.8046 37.0645V55.7133H83.4534V37.0645H92.7778V27.7401H74.129V37.0645H64.8046ZM18.4157 55.7133V74.3621H185.556V55.7133H18.4157ZM46.3889 92.7778H55.7133V74.3621H46.3889V92.7778ZM9.09129 92.7778V111.427H27.7401V120.751H46.3889V111.427H102.102V120.751H111.193H120.518V111.427H176.231V92.7778H9.09129ZM18.4157 139.167H27.7401V129.842H18.4157V139.167ZM9.09129 157.815H27.7401V139.167H18.4157V148.491H9.09129V157.815ZM0 167.14V176.464H18.4157V167.14H0ZM74.129 167.14V176.464H92.7778V167.14H74.129ZM83.4534 148.491V157.815H102.102V148.491H111.193V139.167H92.7778V148.491H83.4534ZM102.102 129.842H92.7778V139.167H111.193V120.751H102.102V129.842ZM120.518 74.3621V92.7778H139.167V74.3621H120.518ZM148.491 37.0645H139.167V55.7133H148.491V37.0645ZM148.491 18.6488V27.7401H166.907V18.6488H148.491ZM0 185.556H18.4157V176.464H0V185.556ZM74.129 176.464V185.556H92.7778V176.464H74.129ZM9.09129 167.14H27.7401V157.815H9.09129V167.14ZM83.4534 157.815V167.14H102.102V157.815H83.4534ZM27.7401 129.842V139.167H37.0645V129.842H46.3889V120.751H27.7401V129.842ZM157.815 27.7401H148.491V55.7133H157.815V37.0645H166.907V27.7401H157.815ZM55.7133 92.7778H64.8046V74.129H55.7133V92.7778ZM27.7401 139.167V148.491H37.0645V139.167H27.7401ZM120.518 120.751H111.193V129.842H120.518V120.751ZM157.815 0V18.6488H176.231V0H157.815Z" fill="#EFEFEF"/>
</svg>
