<svg width="168" height="233" viewBox="0 0 168 233" fill="none" xmlns="http://www.w3.org/2000/svg">
<path fill-rule="evenodd" clip-rule="evenodd" d="M0.436584 13.6042C0.436584 6.68912 6.02969 0.750977 13.2898 0.750977L24.1431 0.750977C31.0917 0.750977 36.9963 6.65559 36.9963 13.6042L36.9963 98.1518L98.1157 98.1518L98.1157 78.7236C98.1157 71.4635 104.332 65.8704 111.247 65.8704L130.954 65.8704L130.954 14.1608C130.954 7.24568 136.547 1.30756 143.807 1.30756L154.66 1.30756C161.92 1.30756 167.513 7.24568 167.513 14.1608L167.513 57.0172C167.513 63.9323 161.92 69.8704 154.66 69.8704L134.954 69.8704L134.954 89.2986C134.954 96.5255 129.327 102.152 122.101 102.152L102.116 102.152L102.116 131.268H122.101C129.327 131.268 134.954 136.894 134.954 144.121V163.828H154.66C161.887 163.828 167.513 168.898 167.513 176.125L167.513 195.553H167.792V219.259C167.792 226.519 161.854 232.112 154.939 232.112H144.085C136.925 232.112 130.954 226.552 130.954 219.259L130.954 167.828L111.247 167.828C104.299 167.828 98.394 161.923 98.394 154.975L98.394 135.268L36.9963 135.268L36.9963 219.259C36.9963 226.519 31.0582 232.112 24.1431 232.112H13.2898C6.06292 232.112 0.436584 226.486 0.436584 219.259L0.436584 13.6042ZM34.9963 133.268L100.116 133.268L100.116 100.152L34.9963 100.152L34.9963 13.6042C34.9963 7.76016 29.9871 2.75098 24.1431 2.75098L13.2898 2.75098C7.16748 2.75098 2.43658 7.76016 2.43658 13.6042L2.43658 219.259C2.43658 225.382 7.16748 230.112 13.2898 230.112H24.1431C29.9871 230.112 34.9963 225.382 34.9963 219.259L34.9963 133.268ZM122.101 100.152C128.223 100.152 132.954 95.4209 132.954 89.2986L132.954 67.8704L154.66 67.8704C160.783 67.8704 165.513 62.8612 165.513 57.0172L165.513 14.1608C165.513 8.31674 160.783 3.30756 154.66 3.30756L143.807 3.30756C137.685 3.30756 132.954 8.31674 132.954 14.1608L132.954 67.8704L111.247 67.8704C105.403 67.8704 100.394 72.6013 100.394 78.7236L100.116 100.152L122.101 100.152ZM100.116 133.268H122.101C128.223 133.268 132.954 137.999 132.954 144.121V165.828H154.66C160.783 165.828 165.513 170.002 165.513 176.125L165.513 197.553H165.792V219.259C165.792 225.382 160.783 230.112 154.939 230.112H144.085C137.963 230.112 132.954 225.382 132.954 219.259L132.954 165.828L111.247 165.828C105.403 165.828 100.394 160.819 100.394 154.975L100.116 133.268Z" fill="white"/>
</svg>
