<svg width="195" height="242" viewBox="0 0 195 242" fill="none" xmlns="http://www.w3.org/2000/svg">
<path d="M186.577 193.056C188.994 193.056 191.066 193.747 192.448 195.128C197.628 200.308 191.757 214.468 179.669 226.901C170.69 235.88 160.329 241.406 153.767 241.406H105.762H105.417H104.726H56.7214H8.02575C5.60823 241.406 3.88144 241.061 2.5 239.679C-2.68039 234.499 2.84536 220.339 15.2783 207.906C24.2576 198.927 34.2731 193.401 41.1802 193.056H8.02575C5.60823 193.056 3.88144 192.711 2.5 191.329C-2.68039 186.149 2.84536 171.989 15.2783 159.556C24.2576 150.577 34.2731 145.051 41.1802 145.051H8.02575C5.60823 144.706 3.88144 144.36 2.5 142.979C-2.68039 137.798 3.19072 123.639 15.2783 111.206C24.2576 102.226 34.2731 96.7006 40.8349 96.7006H8.37111C5.95359 96.7006 3.88144 96.0099 2.5 94.6285C-2.68039 89.4481 3.19072 75.2883 15.2783 62.8554C24.2576 53.8761 34.6184 48.3503 41.1802 48.3503H8.02575C5.60823 48.005 3.88144 47.6596 2.5 46.2782C-2.68039 41.0978 3.19072 26.938 15.2783 14.5051C24.2576 5.52576 34.6184 0 41.1802 0H90.2213C92.2934 0 94.0202 0.345376 95.4017 1.72682C100.582 6.9072 95.0563 21.0669 82.6234 33.4999C73.644 42.4792 63.6286 48.005 57.0668 48.3503H90.2213C92.2934 48.3503 94.3656 48.6957 95.4017 50.0771C100.582 55.2575 95.0563 69.4172 82.6234 81.8502C73.9894 90.8295 63.974 96.3553 57.0668 96.7006H89.5305C91.9481 96.3553 94.0202 97.046 95.4017 98.4274C100.582 103.608 95.0563 117.768 82.6234 130.2C73.644 139.18 63.6286 144.706 56.7214 145.051H90.2213C92.2934 145.051 94.0202 145.396 95.4017 146.778C100.582 151.958 95.0563 166.118 82.6234 178.551C73.644 187.53 63.6286 193.056 56.7214 193.056H89.5305H138.917H186.577Z" fill="#EFEFEF"/>
</svg>
