<svg width="206" height="239" viewBox="0 0 206 239" fill="none" xmlns="http://www.w3.org/2000/svg">
<path d="M146.937 0.392578H200.123C205.994 0.392578 207.03 10.0626 201.159 10.7533C196.669 11.7894 194.252 14.5523 193.906 21.4595V181.361V181.706V183.433C193.906 184.814 194.252 186.887 194.252 189.304C194.252 194.139 194.252 201.046 193.216 207.608C192.18 214.515 190.453 221.423 186.654 227.294C183.2 233.165 177.329 237.309 169.386 238H161.788C159.37 238 154.19 238.345 145.901 238C132.432 237.309 119.999 227.984 119.999 208.99C119.999 197.938 127.252 188.268 135.886 176.526C144.52 165.129 154.881 150.279 159.716 131.974C160.406 129.557 160.406 128.176 160.061 127.139C159.716 126.103 159.5 126 159.5 126C159.5 126 158.334 125.413 156.608 125.413C154.535 125.413 152.118 126.103 148.319 127.485L143.139 129.212V126.794C142.793 123.686 142.793 120.923 142.448 117.469C142.102 103.655 141.412 85.6963 124.144 49.779C111.02 22.4956 67.5048 13.8616 44.3657 13.8616H41.6029C37.1132 13.5162 32.6235 13.1709 28.1339 12.1348C52.6544 68.7737 37.4585 116.088 28.1339 138.882C37.4585 136.81 51.9636 136.81 57.8348 146.134C71.3038 166.51 50.5822 178.253 31.5874 188.959C23.2988 193.448 15.7009 197.593 11.2112 202.428C10.5205 203.119 10.1752 203.809 9.82981 204.5C32.1942 203.812 37.7623 212.379 42.2432 219.273L42.2936 219.35C45.0565 223.495 47.1286 226.603 51.6183 227.294C57.4894 228.33 53.6904 238 50.5822 238H28.1339H13.9741C7.75765 238 7.06693 228.33 12.5927 227.294C17.0824 226.603 19.4999 223.84 19.8452 217.624C19.8452 215.551 19.4999 214.861 19.1545 214.515C18.8091 213.825 18.1184 213.479 17.0824 213.134C15.7009 213.134 14.3195 212.789 12.5927 212.789H11.5566C10.1752 212.789 8.44837 212.789 7.41229 212.443C6.37621 212.443 5.34013 212.098 4.30406 211.752C3.26798 211.407 2.2319 210.371 1.54118 208.99C-0.185614 206.227 1.19582 203.464 2.2319 201.392C4.64941 196.902 10.5205 189.995 21.2267 178.598C31.9328 167.546 36.7678 159.949 38.4946 155.114C39.5307 152.696 39.5307 151.315 39.1854 150.624C39.1854 149.933 38.84 149.242 38.1493 148.897C36.4225 147.861 33.3142 147.17 30.206 147.17C28.8246 147.17 27.4431 147.516 26.4071 147.516H25.0256H24.6803L19.8452 148.552V0.392578L25.7163 2.81008C36.0771 6.9544 48.1647 5.91832 61.6337 3.84617C62.6698 3.84617 64.0512 3.50081 65.4327 3.50081C77.1749 1.77402 90.2985 0.0472229 102.041 2.46473C115.51 5.57296 127.597 13.8616 136.231 32.511C144.175 50.1243 149.7 77.4077 151.082 118.16C152.809 117.469 154.535 117.469 155.917 117.124C158.68 117.124 161.788 117.469 163.86 118.851C166.278 120.578 167.659 122.995 168.004 125.413C168.695 127.83 168.35 130.593 168.004 133.356L168.004 133.356C166.968 138.536 164.896 145.098 162.133 152.005C160.752 155.459 159.025 159.603 157.298 163.748C155.917 167.201 154.19 170.655 152.809 174.108C150.046 181.706 146.937 189.649 145.211 196.557C143.139 203.809 142.448 210.026 143.139 215.206C143.484 220.386 145.556 223.84 149.01 226.258C150.736 227.294 152.809 228.33 155.571 229.02C171.458 228.675 179.056 205.536 178.365 194.83C178.02 172.036 177.674 118.851 178.365 84.3149C179.056 50.1243 158.334 23.877 147.628 14.8977C141.757 7.99049 144.865 2.46473 146.937 0.392578Z" fill="#EFEFEF"/>
</svg>
