<svg width="202" height="223" viewBox="0 0 202 223" fill="none" xmlns="http://www.w3.org/2000/svg">
<path fill-rule="evenodd" clip-rule="evenodd" d="M160.457 160.383L121.119 121.045L91.5424 150.622L111.063 170.439L42.1486 170.143V42.0742H160.457V160.383ZM158.457 44.0742H44.1486V168.152L106.265 168.418L88.7246 150.612L121.119 118.217L158.457 155.554V99.8142V44.0742Z" fill="white"/>
<path fill-rule="evenodd" clip-rule="evenodd" d="M201.795 172.439H175.098L192.873 189.949L160.457 222.365L130.88 192.788L111.892 211.776H31.5598L0.811096 181.027V41.2455L41.3202 0.736328H161.286L201.795 41.2455V172.439ZM130.88 189.959L160.457 219.537L190.034 189.959L170.218 170.439H199.795V42.0739L160.457 2.73633H42.1486L2.8111 42.0739V180.199L32.3882 209.776H111.063L130.88 189.959Z" fill="white"/>
</svg>
