<svg width="226" height="236" viewBox="0 0 226 236" fill="none" xmlns="http://www.w3.org/2000/svg">
<path d="M0.748901 99.7323H11.4309C19.4424 45.5211 42.4087 8.93532 122.257 8.93532C175.934 8.93532 209.048 28.1629 209.048 57.0043C209.048 92.789 178.604 109.613 127.063 139.256C111.575 149.136 96.8868 155.279 96.8868 169.966V179.046H107.569V169.966C107.569 160.887 120.12 155.279 134.541 146.466C190.354 114.153 225.071 98.6641 225.071 57.0043C225.071 23.356 185.547 0.923828 122.257 0.923828C67.5114 0.923828 40.8064 14.0093 23.4481 35.9073C15.7037 46.8564 6.0899 49.2598 6.0899 31.1005V6.26482H0.748901V99.7323Z" fill="#EFEFEF"/>
<path d="M125.194 220.439C125.194 229.786 118.785 235.928 109.171 235.928C99.5573 235.928 93.1481 229.786 93.1481 220.439C93.1481 211.092 99.5573 204.95 109.171 204.95C118.785 204.95 125.194 211.092 125.194 220.439Z" fill="#EFEFEF"/>
</svg>
