<svg width="192" height="259" viewBox="0 0 192 259" fill="none" xmlns="http://www.w3.org/2000/svg">
<path d="M0.326782 0.273438L0.326782 9.26929L0.703033 47.1268C2.96054 49.3758 8.98055 54.2486 16.5056 46.0024C19.5156 28.7603 43.2194 14.8917 54.1306 9.26929H87.9932V161.074L93.2607 160.325C93.2607 160.325 93.2607 160.325 93.637 160.325C93.637 160.325 94.3895 159.95 94.7657 159.95C95.8945 159.95 97.3995 159.95 98.9045 159.95C102.667 159.95 105.677 160.325 107.558 161.824C108.311 162.199 108.687 162.574 108.687 163.323C109.063 164.448 109.063 165.947 108.311 168.196C106.43 173.444 100.786 181.69 89.122 194.059C77.4582 206.054 71.0619 213.55 68.4282 218.423C67.2994 220.672 66.1707 224.045 67.6757 227.044C68.4282 228.543 69.9332 229.293 71.0619 230.043C71.8144 230.417 72.9432 230.417 74.0719 230.792C75.577 230.792 77.0819 230.792 78.587 230.792C78.9632 230.792 79.3394 230.792 79.7157 231.167C81.597 231.167 83.4782 231.167 84.607 231.542C86.112 231.917 86.4882 232.292 87.2407 232.666C87.2407 233.041 87.9932 234.166 87.9932 236.04C87.2407 243.161 84.607 246.16 80.092 246.91C73.6957 247.659 74.8244 258.155 81.2207 258.155H96.647H121.103C124.866 258.155 128.628 247.659 122.608 246.91C117.717 246.16 115.083 242.412 112.45 238.289C107.558 230.792 101.162 221.047 76.7057 221.796C77.0819 221.422 77.4582 220.672 78.2107 219.922C83.102 214.675 91.7557 209.802 100.41 204.929C121.103 193.684 143.678 180.94 129.005 158.451C122.608 148.705 106.806 148.33 96.647 150.954V150.579C97.7757 148.33 98.9045 146.081 100.033 143.832C107.935 126.965 115.083 110.847 101.538 62.8696C99.657 54.6234 98.9045 46.752 97.7757 37.3813C97.3995 34.3827 97.3995 31.0093 96.647 27.6358V9.26929H137.282C148.193 14.8917 171.897 28.7603 174.907 46.0024C182.432 54.2486 188.828 49.3758 191.086 47.1268L191.462 9.26929V0.273438L0.326782 0.273438Z" fill="#EFEFEF"/>
</svg>
