<svg width="214" height="213" viewBox="0 0 214 213" fill="none" xmlns="http://www.w3.org/2000/svg">
<path fill-rule="evenodd" clip-rule="evenodd" d="M13.4975 72.4274L38.327 97.257C43.4613 102.391 43.4613 110.59 38.327 115.724L13.4887 140.562C-3.27266 157.021 -3.27046 184.024 13.1864 200.481C15.2582 202.553 17.322 204.06 19.5725 205.492C35.9875 215.855 58.8838 214.696 73.0987 200.481L97.9434 175.636C103.078 170.502 111.276 170.502 116.411 175.636L141.551 200.481C155.719 214.645 178.621 215.805 194.745 205.523C196.945 204.115 199.136 202.518 201.168 200.486C217.625 184.029 217.625 157.026 201.168 140.569L176.323 115.724C171.188 110.59 171.188 102.391 176.323 97.257L201.168 72.4122C215.304 58.2757 217.277 36.247 207.077 20.1293C205.493 17.5945 203.305 14.6376 201.168 12.5C184.712 -3.95548 158.008 -3.95261 141.551 12.5L116.375 37.3815C111.563 42.4463 103.098 42.4998 97.9434 37.3448L73.0987 12.5C56.6418 -3.95692 29.6433 -3.95692 13.1864 12.5C11.502 14.465 9.51124 16.7873 8 19.1653C-2.54851 35.6086 -1.09736 58.1357 13.4975 72.4274ZM14.6006 13.9142C14.4834 14.051 14.7202 13.775 14.6006 13.9142C30.2765 -1.76166 56.0086 -1.76166 71.6845 13.9142L96.5292 38.759C102.445 44.6744 112.205 44.6744 117.825 38.759L142.965 13.9142C158.641 -1.76166 184.078 -1.76166 199.753 13.9142C201.824 15.9846 203.598 18.055 205.077 20.4212C215.133 35.8013 213.359 57.3926 199.753 70.998L174.909 95.8428C168.993 101.758 168.993 111.223 174.909 117.138L199.753 141.983C215.429 157.659 215.429 183.391 199.753 199.067C197.683 201.137 195.613 202.616 193.246 204.095C177.866 214.151 156.571 212.672 142.965 199.067L117.825 174.222C111.909 168.307 102.445 168.307 96.5292 174.222L71.6845 199.067C58.079 212.672 37.0792 214.447 21.4034 204.391C19.0372 202.912 16.671 201.137 14.6006 199.067C-1.07522 183.391 -1.07522 157.659 14.8964 141.983L39.7412 117.138C45.6566 111.223 45.6566 101.758 39.7412 95.8428L14.8964 70.998C0.995177 57.3926 -0.779449 36.3928 9.27677 20.717C10.658 18.5071 12.9104 15.8832 14.6006 13.9142Z" fill="white"/>
</svg>
